<svg id="Capa_1" data-name="Capa 1" xmlns="http://www.w3.org/2000/svg" viewBox="0 0 139.84 43"><defs><style>.cls-1{font-size:32.66px;font-family:Cabin-Italic, Cabin;font-style:italic;letter-spacing:0em;}.cls-2{letter-spacing:-0.01em;}.cls-3{letter-spacing:0em;}.cls-4{fill:none;stroke:#000;stroke-miterlimit:10;stroke-width:0.5px;}.cls-5{fill-rule:evenodd;}</style></defs><title>proJam</title><text class="cls-1" transform="translate(37.08 30.92)">P<tspan class="cls-2" x="17.41" y="0">r</tspan><tspan class="cls-3" x="27.18" y="0">o Jam</tspan></text><line class="cls-4" x1="29.5" x2="29.5" y2="43"/><path d="M38.79,51.9c0,2.83-2.87,5.12-6.4,5.12S26,54.73,26,51.9s2.86-5.11,6.39-5.11S38.79,49.08,38.79,51.9Z" transform="translate(-26 -18)"/><path class="cls-5" d="M38.77,26.32V51.9H36.21V26.32Z" transform="translate(-26 -18)"/><path d="M36.21,25.87a2.56,2.56,0,0,1,2.06-2.51l7.67-1.54a2.57,2.57,0,0,1,3,2,2.83,2.83,0,0,1,0,.5v4.55L36.21,31.44Z" transform="translate(-26 -18)"/></svg>